<svg id="Layer_1" data-name="Layer 1" xmlns="http://www.w3.org/2000/svg" viewBox="0 0 20 20"><title>replacement</title><path d="M9.66,1.1A3.31,3.31,0,0,1,12.12,2,3,3,0,0,1,13,4c-0.07,5.5-1.39,7-1.57,7.19a0.32,0.32,0,0,0-.07.06,3.36,3.36,0,0,1-1.93.69,2.74,2.74,0,0,1-1.74-.65C6.2,9.58,6.07,6.32,6,4.1a3.79,3.79,0,0,1,3.52-3H9.66m0-1H9.5C5.72,0.21,5.12,2.5,5.07,4,5,6.69,5.25,10.09,7,12a3.76,3.76,0,0,0,2.43.93A4.37,4.37,0,0,0,12,12s1.92-1.25,2-8A4.12,4.12,0,0,0,9.66.1h0Z" fill="#6fa6d4"/><path d="M5.07,4a13.81,13.81,0,0,0,.12,3.08c0.58-1.94,1.45-3,2.92-3C9.36,4,12.31,4.63,13.82,3A4.23,4.23,0,0,0,9.5,0,4.29,4.29,0,0,0,5.07,4Z" fill="#6fa6d4"/><path d="M5.33,15.35A6.06,6.06,0,0,0,9.5,17a6,6,0,0,0,4.13-1.59L17,16.74l0,0V18H2V16.75l3.33-1.4m0.6-2.42L1,15a1.77,1.77,0,0,0-1,1.5V20H19V16.5A2.15,2.15,0,0,0,18,15l-5-2a3.91,3.91,0,0,1-3.5,2,4.15,4.15,0,0,1-3.57-2.07h0Z" fill="#6fa6d4"/><path d="M13,13.07h0A14,14,0,0,1,13,10a2.94,2.94,0,0,0,0-.73,5.27,5.27,0,0,1-1,2,19.17,19.17,0,0,0,.3,3.19A5.86,5.86,0,0,0,13,13.07Z" fill="#6fa6d4"/><path d="M5.92,13h0a6.34,6.34,0,0,0,.82,1.5A21.25,21.25,0,0,0,7,11.4a7.16,7.16,0,0,1-1-2A1.46,1.46,0,0,0,6,10,15.44,15.44,0,0,1,5.92,13Z" fill="#6fa6d4"/></svg>